<mxfile host="app.diagrams.net" modified="2021-06-15T10:25:00.044Z" agent="5.0 (Windows NT 10.0; Win64; x64) AppleWebKit/537.36 (KHTML, like Gecko) Chrome/90.0.4430.212 Safari/537.36" etag="thTJU5pbXzVQFMmzuWOn" version="14.7.8" type="github">
  <diagram id="qBDwC2DoH4t5I3G02L6G" name="第 1 页">
    <mxGraphModel dx="1422" dy="834" grid="1" gridSize="10" guides="1" tooltips="1" connect="1" arrows="1" fold="1" page="1" pageScale="1" pageWidth="827" pageHeight="1169" math="0" shadow="0">
      <root>
        <mxCell id="0" />
        <mxCell id="1" parent="0" />
        <mxCell id="tgh_nrCpCCwgZsjxoewK-11" value="" style="rounded=0;whiteSpace=wrap;html=1;comic=1;strokeWidth=3;" vertex="1" parent="1">
          <mxGeometry x="320" y="310" width="120" height="290" as="geometry" />
        </mxCell>
        <mxCell id="tgh_nrCpCCwgZsjxoewK-2" value="" style="endArrow=classic;html=1;jumpStyle=none;comic=1;jumpSize=13;strokeWidth=4;" edge="1" parent="1">
          <mxGeometry width="50" height="50" relative="1" as="geometry">
            <mxPoint x="50" y="610" as="sourcePoint" />
            <mxPoint x="770" y="610" as="targetPoint" />
          </mxGeometry>
        </mxCell>
        <mxCell id="tgh_nrCpCCwgZsjxoewK-4" value="" style="rounded=0;whiteSpace=wrap;html=1;comic=1;strokeWidth=3;" vertex="1" parent="1">
          <mxGeometry x="40" y="310" width="120" height="290" as="geometry" />
        </mxCell>
        <mxCell id="tgh_nrCpCCwgZsjxoewK-5" value="Add 11" style="rounded=1;whiteSpace=wrap;html=1;comic=1;strokeWidth=3;fillColor=#dae8fc;strokeColor=#6c8ebf;" vertex="1" parent="1">
          <mxGeometry x="55" y="555" width="90" height="30" as="geometry" />
        </mxCell>
        <mxCell id="tgh_nrCpCCwgZsjxoewK-6" value="Add 12" style="rounded=1;whiteSpace=wrap;html=1;comic=1;strokeWidth=3;fillColor=#dae8fc;strokeColor=#6c8ebf;" vertex="1" parent="1">
          <mxGeometry x="55" y="510" width="90" height="30" as="geometry" />
        </mxCell>
        <mxCell id="tgh_nrCpCCwgZsjxoewK-7" value="" style="rounded=0;whiteSpace=wrap;html=1;comic=1;strokeWidth=3;" vertex="1" parent="1">
          <mxGeometry x="180" y="310" width="120" height="290" as="geometry" />
        </mxCell>
        <mxCell id="tgh_nrCpCCwgZsjxoewK-8" value="Add 11" style="rounded=1;whiteSpace=wrap;html=1;comic=1;strokeWidth=3;fillColor=#dae8fc;strokeColor=#6c8ebf;" vertex="1" parent="1">
          <mxGeometry x="195" y="555" width="90" height="30" as="geometry" />
        </mxCell>
        <mxCell id="tgh_nrCpCCwgZsjxoewK-9" value="Add 12" style="rounded=1;whiteSpace=wrap;html=1;comic=1;strokeWidth=3;fillColor=#dae8fc;strokeColor=#6c8ebf;" vertex="1" parent="1">
          <mxGeometry x="195" y="510" width="90" height="30" as="geometry" />
        </mxCell>
        <mxCell id="tgh_nrCpCCwgZsjxoewK-10" value="Add 13" style="rounded=1;whiteSpace=wrap;html=1;comic=1;strokeWidth=3;fillColor=#dae8fc;strokeColor=#6c8ebf;" vertex="1" parent="1">
          <mxGeometry x="195" y="460" width="90" height="30" as="geometry" />
        </mxCell>
        <mxCell id="tgh_nrCpCCwgZsjxoewK-12" value="Add 11" style="rounded=1;whiteSpace=wrap;html=1;comic=1;strokeWidth=3;fillColor=#dae8fc;strokeColor=#6c8ebf;" vertex="1" parent="1">
          <mxGeometry x="335" y="555" width="90" height="30" as="geometry" />
        </mxCell>
        <mxCell id="tgh_nrCpCCwgZsjxoewK-13" value="Add 12" style="rounded=1;whiteSpace=wrap;html=1;comic=1;strokeWidth=3;fillColor=#dae8fc;strokeColor=#6c8ebf;" vertex="1" parent="1">
          <mxGeometry x="335" y="510" width="90" height="30" as="geometry" />
        </mxCell>
        <mxCell id="tgh_nrCpCCwgZsjxoewK-14" value="Add 13" style="rounded=1;whiteSpace=wrap;html=1;comic=1;strokeWidth=3;fillColor=#dae8fc;strokeColor=#6c8ebf;" vertex="1" parent="1">
          <mxGeometry x="335" y="460" width="90" height="30" as="geometry" />
        </mxCell>
        <mxCell id="tgh_nrCpCCwgZsjxoewK-15" value="Del 12" style="rounded=1;whiteSpace=wrap;html=1;comic=1;strokeWidth=3;fillColor=#ffe6cc;strokeColor=#d79b00;" vertex="1" parent="1">
          <mxGeometry x="335" y="410" width="90" height="30" as="geometry" />
        </mxCell>
        <mxCell id="tgh_nrCpCCwgZsjxoewK-17" value="" style="endArrow=none;html=1;strokeColor=#000000;strokeWidth=4;comic=1;opacity=60;" edge="1" parent="1">
          <mxGeometry width="50" height="50" relative="1" as="geometry">
            <mxPoint x="335" y="450" as="sourcePoint" />
            <mxPoint x="385" y="400" as="targetPoint" />
          </mxGeometry>
        </mxCell>
        <mxCell id="tgh_nrCpCCwgZsjxoewK-18" value="" style="endArrow=none;html=1;strokeColor=#000000;strokeWidth=4;comic=1;opacity=60;" edge="1" parent="1">
          <mxGeometry width="50" height="50" relative="1" as="geometry">
            <mxPoint x="375" y="450" as="sourcePoint" />
            <mxPoint x="425" y="400" as="targetPoint" />
          </mxGeometry>
        </mxCell>
        <mxCell id="tgh_nrCpCCwgZsjxoewK-19" value="" style="endArrow=none;html=1;strokeColor=#000000;strokeWidth=4;comic=1;opacity=60;" edge="1" parent="1">
          <mxGeometry width="50" height="50" relative="1" as="geometry">
            <mxPoint x="355" y="450" as="sourcePoint" />
            <mxPoint x="405" y="400" as="targetPoint" />
          </mxGeometry>
        </mxCell>
        <mxCell id="tgh_nrCpCCwgZsjxoewK-20" value="" style="endArrow=none;html=1;strokeColor=#000000;strokeWidth=4;comic=1;opacity=60;" edge="1" parent="1">
          <mxGeometry width="50" height="50" relative="1" as="geometry">
            <mxPoint x="324" y="550" as="sourcePoint" />
            <mxPoint x="374" y="500" as="targetPoint" />
          </mxGeometry>
        </mxCell>
        <mxCell id="tgh_nrCpCCwgZsjxoewK-21" value="" style="endArrow=none;html=1;strokeColor=#000000;strokeWidth=4;comic=1;opacity=60;" edge="1" parent="1">
          <mxGeometry width="50" height="50" relative="1" as="geometry">
            <mxPoint x="364" y="550" as="sourcePoint" />
            <mxPoint x="414" y="500" as="targetPoint" />
          </mxGeometry>
        </mxCell>
        <mxCell id="tgh_nrCpCCwgZsjxoewK-22" value="" style="endArrow=none;html=1;strokeColor=#000000;strokeWidth=4;comic=1;opacity=60;" edge="1" parent="1">
          <mxGeometry width="50" height="50" relative="1" as="geometry">
            <mxPoint x="344" y="550" as="sourcePoint" />
            <mxPoint x="394" y="500" as="targetPoint" />
          </mxGeometry>
        </mxCell>
        <mxCell id="tgh_nrCpCCwgZsjxoewK-23" value="" style="rounded=0;whiteSpace=wrap;html=1;comic=1;strokeWidth=3;" vertex="1" parent="1">
          <mxGeometry x="470" y="310" width="120" height="290" as="geometry" />
        </mxCell>
        <mxCell id="tgh_nrCpCCwgZsjxoewK-24" value="Add 11" style="rounded=1;whiteSpace=wrap;html=1;comic=1;strokeWidth=3;fillColor=#dae8fc;strokeColor=#6c8ebf;" vertex="1" parent="1">
          <mxGeometry x="485" y="555" width="90" height="30" as="geometry" />
        </mxCell>
        <mxCell id="tgh_nrCpCCwgZsjxoewK-25" value="Add 13" style="rounded=1;whiteSpace=wrap;html=1;comic=1;strokeWidth=3;fillColor=#dae8fc;strokeColor=#6c8ebf;" vertex="1" parent="1">
          <mxGeometry x="485" y="510" width="90" height="30" as="geometry" />
        </mxCell>
        <mxCell id="tgh_nrCpCCwgZsjxoewK-26" value="Del 9" style="rounded=1;whiteSpace=wrap;html=1;comic=1;strokeWidth=3;fillColor=#ffe6cc;strokeColor=#d79b00;" vertex="1" parent="1">
          <mxGeometry x="485" y="460" width="90" height="30" as="geometry" />
        </mxCell>
        <mxCell id="tgh_nrCpCCwgZsjxoewK-27" value="" style="rounded=0;whiteSpace=wrap;html=1;comic=1;strokeWidth=3;" vertex="1" parent="1">
          <mxGeometry x="630" y="310" width="120" height="290" as="geometry" />
        </mxCell>
        <mxCell id="tgh_nrCpCCwgZsjxoewK-28" value="Add 18" style="rounded=1;whiteSpace=wrap;html=1;comic=1;strokeWidth=3;fillColor=#dae8fc;strokeColor=#6c8ebf;" vertex="1" parent="1">
          <mxGeometry x="645" y="555" width="90" height="30" as="geometry" />
        </mxCell>
        <mxCell id="tgh_nrCpCCwgZsjxoewK-31" value="Add 17" style="rounded=1;whiteSpace=wrap;html=1;comic=1;strokeWidth=3;fillColor=#dae8fc;strokeColor=#6c8ebf;" vertex="1" parent="1">
          <mxGeometry x="485" y="410" width="90" height="30" as="geometry" />
        </mxCell>
      </root>
    </mxGraphModel>
  </diagram>
</mxfile>
